<svg width="100%" viewBox="0 0 680 460" xmlns="http://www.w3.org/2000/svg">
<defs>
  <style>
    @import url('https://fonts.googleapis.com/css2?family=Caveat:wght@400;600&amp;display=swap');
    .chalk-title { font-family: 'Caveat', cursive; font-weight: 600; }
    .chalk-sub   { font-family: 'Caveat', cursive; font-weight: 400; }
  </style>
</defs>

<rect x="0" y="0" width="680" height="460" rx="6" fill="#2d4a3e"/>
<line x1="0" y1="80"  x2="680" y2="80"  stroke="#ffffff" stroke-width="0.2" opacity="0.04"/>
<line x1="0" y1="160" x2="680" y2="160" stroke="#ffffff" stroke-width="0.2" opacity="0.04"/>
<line x1="0" y1="240" x2="680" y2="240" stroke="#ffffff" stroke-width="0.2" opacity="0.04"/>
<line x1="0" y1="320" x2="680" y2="320" stroke="#ffffff" stroke-width="0.2" opacity="0.04"/>
<line x1="0" y1="400" x2="680" y2="400" stroke="#ffffff" stroke-width="0.2" opacity="0.04"/>

<path d="M20,20 C220,15 460,15 660,20 C662,155 662,305 660,440 C460,445 220,445 20,440 C18,305 18,155 20,20 Z"
  stroke="#e8e0c8" stroke-width="1.4" stroke-dasharray="7 5" fill="none" opacity="0.5"/>

<text class="chalk-title" x="340" y="42" font-size="18" text-anchor="middle" letter-spacing="4" fill="#a8d8b0" opacity="0.95">BRIM Ecosystem</text>
<text class="chalk-sub" x="340" y="60" font-size="12" text-anchor="middle" fill="#c8d8c0" opacity="0.6">No-code, modular tools for RNA-seq analysis, drug repurposing &amp; beyond</text>

<text class="chalk-sub" x="38" y="76" font-size="13" fill="#c8d8c0" opacity="0.7">phase 1</text>
<path d="M30,80 L650,80" stroke="#c8d8c0" stroke-width="0.7" fill="none" opacity="0.25"/>

<text class="chalk-sub" x="340" y="96" font-size="13" text-anchor="middle" letter-spacing="2" fill="#c8d8c0" opacity="0.6">· · · core pipeline · · ·</text>

<rect x="30" y="103" width="140" height="54" rx="16" fill="#3a5a4a" stroke="#e8e0c8" stroke-width="1.8" opacity="0.95"/>
<text class="chalk-title" x="100" y="127" font-size="20" text-anchor="middle" dominant-baseline="central" fill="#a8d8b0">BRIM</text>
<text class="chalk-sub"  x="100" y="146" font-size="14" text-anchor="middle" dominant-baseline="central" fill="#c8d8c0" opacity="0.8">bulk RNA-seq</text>
<text class="chalk-sub"  x="100" y="170" font-size="12" text-anchor="middle" fill="#c8d8c0" opacity="0.55">↓ DEG list</text>

<path d="M171,130 L199,130" stroke="#e8e0c8" stroke-width="1.4" fill="none" stroke-linecap="round" opacity="0.7"/>
<path d="M195,126 L201,130 L195,134" stroke="#e8e0c8" stroke-width="1.4" fill="none" stroke-linecap="round" stroke-linejoin="round" opacity="0.7"/>

<rect x="203" y="103" width="140" height="54" rx="16" fill="#3a5a4a" stroke="#e8e0c8" stroke-width="1.8" opacity="0.95"/>
<text class="chalk-title" x="273" y="127" font-size="20" text-anchor="middle" dominant-baseline="central" fill="#a8d8b0">DRIM</text>
<text class="chalk-sub"  x="273" y="146" font-size="14" text-anchor="middle" dominant-baseline="central" fill="#c8d8c0" opacity="0.8">drug repurposing</text>
<text class="chalk-sub"  x="273" y="170" font-size="12" text-anchor="middle" fill="#c8d8c0" opacity="0.55">↓ drug list</text>

<path d="M344,130 L372,130" stroke="#e8e0c8" stroke-width="1.4" fill="none" stroke-linecap="round" opacity="0.7"/>
<path d="M368,126 L374,130 L368,134" stroke="#e8e0c8" stroke-width="1.4" fill="none" stroke-linecap="round" stroke-linejoin="round" opacity="0.7"/>

<rect x="376" y="103" width="140" height="54" rx="16" fill="#3a5a4a" stroke="#e8e0c8" stroke-width="1.8" opacity="0.95"/>
<text class="chalk-title" x="446" y="127" font-size="20" text-anchor="middle" dominant-baseline="central" fill="#a8d8b0">TRIM</text>
<text class="chalk-sub"  x="446" y="146" font-size="14" text-anchor="middle" dominant-baseline="central" fill="#c8d8c0" opacity="0.8">clinical evidence</text>
<text class="chalk-sub"  x="446" y="170" font-size="12" text-anchor="middle" fill="#c8d8c0" opacity="0.55">↓ evidence report</text>

<path d="M100,158 L100,194" stroke="#c8d8c0" stroke-width="1" fill="none" stroke-dasharray="4 3" stroke-linecap="round" opacity="0.5"/>
<path d="M100,194 L380,194" stroke="#c8d8c0" stroke-width="1" fill="none" stroke-dasharray="4 3" stroke-linecap="round" opacity="0.5"/>

<path d="M200,194 L200,224" stroke="#c8d8c0" stroke-width="1" fill="none" stroke-linecap="round" opacity="0.6"/>
<path d="M196,220 L200,226 L204,220" stroke="#c8d8c0" stroke-width="1" fill="none" stroke-linecap="round" stroke-linejoin="round" opacity="0.6"/>

<path d="M378,194 L378,224" stroke="#c8d8c0" stroke-width="1" fill="none" stroke-linecap="round" opacity="0.6"/>
<path d="M374,220 L378,226 L382,220" stroke="#c8d8c0" stroke-width="1" fill="none" stroke-linecap="round" stroke-linejoin="round" opacity="0.6"/>

<rect x="136" y="228" width="130" height="52" rx="16" fill="#324e42" stroke="#c8d8c0" stroke-width="1.4" opacity="0.85"/>
<text class="chalk-title" x="201" y="251" font-size="18" text-anchor="middle" dominant-baseline="central" fill="#e8e0c8">CIIM</text>
<text class="chalk-sub"  x="201" y="269" font-size="13" text-anchor="middle" dominant-baseline="central" fill="#c8d8c0" opacity="0.7">cell-cell interaction</text>
<text class="chalk-sub"  x="201" y="293" font-size="12" text-anchor="middle" fill="#c8d8c0" opacity="0.45">↓ interaction map</text>

<rect x="314" y="228" width="130" height="52" rx="16" fill="#324e42" stroke="#c8d8c0" stroke-width="1.4" opacity="0.85"/>
<text class="chalk-title" x="379" y="251" font-size="18" text-anchor="middle" dominant-baseline="central" fill="#e8e0c8">GRIM</text>
<text class="chalk-sub"  x="379" y="269" font-size="13" text-anchor="middle" dominant-baseline="central" fill="#c8d8c0" opacity="0.7">gene regulatory NW</text>
<text class="chalk-sub"  x="379" y="293" font-size="12" text-anchor="middle" fill="#c8d8c0" opacity="0.45">↓ regulatory network</text>

<path d="M30,318 L650,318" stroke="#c8d8c0" stroke-width="0.6" fill="none" stroke-dasharray="3 4" opacity="0.2"/>
<text class="chalk-sub" x="38" y="314" font-size="13" fill="#c8d8c0" opacity="0.3">phase 2  · · ·</text>

<rect x="30"  y="328" width="110" height="42" rx="14" fill="none" stroke="#c8d8c0" stroke-width="0.8" stroke-dasharray="3 3" opacity="0.25"/>
<text class="chalk-sub" x="85"  y="346" font-size="14" text-anchor="middle" dominant-baseline="central" fill="#c8d8c0" opacity="0.3">OMIM</text>
<text class="chalk-sub" x="85"  y="361" font-size="12" text-anchor="middle" dominant-baseline="central" fill="#c8d8c0" opacity="0.25">multi-omics</text>

<rect x="152" y="328" width="110" height="42" rx="14" fill="none" stroke="#c8d8c0" stroke-width="0.8" stroke-dasharray="3 3" opacity="0.25"/>
<text class="chalk-sub" x="207" y="346" font-size="14" text-anchor="middle" dominant-baseline="central" fill="#c8d8c0" opacity="0.3">AIM</text>
<text class="chalk-sub" x="207" y="361" font-size="12" text-anchor="middle" dominant-baseline="central" fill="#c8d8c0" opacity="0.25">aging inference</text>

<rect x="274" y="328" width="110" height="42" rx="14" fill="none" stroke="#c8d8c0" stroke-width="0.8" stroke-dasharray="3 3" opacity="0.25"/>
<text class="chalk-sub" x="329" y="346" font-size="14" text-anchor="middle" dominant-baseline="central" fill="#c8d8c0" opacity="0.3">MIRIM</text>
<text class="chalk-sub" x="329" y="361" font-size="12" text-anchor="middle" dominant-baseline="central" fill="#c8d8c0" opacity="0.25">microbiome</text>

<rect x="396" y="328" width="110" height="42" rx="14" fill="none" stroke="#c8d8c0" stroke-width="0.8" stroke-dasharray="3 3" opacity="0.25"/>
<text class="chalk-sub" x="451" y="346" font-size="14" text-anchor="middle" dominant-baseline="central" fill="#c8d8c0" opacity="0.3">EPIM</text>
<text class="chalk-sub" x="451" y="361" font-size="12" text-anchor="middle" dominant-baseline="central" fill="#c8d8c0" opacity="0.25">epigenome</text>

<rect x="518" y="328" width="110" height="42" rx="14" fill="none" stroke="#c8d8c0" stroke-width="0.8" stroke-dasharray="3 3" opacity="0.25"/>
<text class="chalk-sub" x="573" y="346" font-size="14" text-anchor="middle" dominant-baseline="central" fill="#c8d8c0" opacity="0.3">scRNA</text>
<text class="chalk-sub" x="573" y="361" font-size="12" text-anchor="middle" dominant-baseline="central" fill="#c8d8c0" opacity="0.25">single-cell linkage</text>

<path d="M480,402 L504,402" stroke="#a8d8b0" stroke-width="1.5" fill="none"/>
<text class="chalk-sub" x="510" y="402" font-size="13" dominant-baseline="central" fill="#c8d8c0" opacity="0.7">active</text>
<path d="M480,420 L504,420" stroke="#c8d8c0" stroke-width="0.8" fill="none" stroke-dasharray="3 3" opacity="0.3"/>
<text class="chalk-sub" x="510" y="420" font-size="13" dominant-baseline="central" fill="#c8d8c0" opacity="0.3">coming soon</text>

</svg>
